<?xml version="1.0" encoding="UTF-8" standalone="no"?><!DOCTYPE svg PUBLIC "-//W3C//DTD SVG 1.1//EN" "http://www.w3.org/Graphics/SVG/1.1/DTD/svg11.dtd"><svg width="100%" height="100%" viewBox="0 0 190 150" version="1.1" xmlns="http://www.w3.org/2000/svg" xmlns:xlink="http://www.w3.org/1999/xlink" xml:space="preserve" xmlns:serif="http://www.serif.com/" style="fill-rule:evenodd;clip-rule:evenodd;"><g><path d="M71.904,61.997c-6.526,1.78 -12.913,3.61 -19.16,5.49c-3.2,0.96 -5.89,2.51 -4.87,6.09c3.9,13.62 7.897,27.2 11.99,40.74c0.744,2.463 3.364,3.892 5.83,3.18l30.87,-8.84" style="fill:none;fill-rule:nonzero;stroke:#c7c7c7;stroke-width:2px;"/><path d="M96.564,108.657c7.28,1.92 14.7,4.027 22.26,6.32c2.467,0.753 4.32,0.08 5.56,-2.02c0.674,-1.153 1.2,-2.373 1.58,-3.66c5.327,-18.153 10.647,-36.307 15.96,-54.46c1.52,-5.19 -1.25,-6.36 -5.52,-7.55c-16.873,-4.7 -34.07,-9.633 -51.59,-14.8c-0.379,-0.111 -0.771,-0.167 -1.166,-0.167c-1.839,-0 -3.469,1.222 -3.984,2.987l-7.76,26.69" style="fill:none;fill-rule:nonzero;stroke:#f7f7f7;stroke-width:2px;"/><path d="M96.564,108.657c-10.44,-3.293 -20.74,-6.393 -30.9,-9.3c-2.893,-0.827 -3.94,-2.683 -3.14,-5.57c1.434,-5.153 4.56,-15.75 9.38,-31.79" style="fill:none;fill-rule:nonzero;stroke:#cfcfcf;stroke-width:2px;"/><path d="M70.224,78.507l-4.76,16.53c-0.03,0.102 -0.045,0.207 -0.045,0.313c0,0.494 0.33,0.931 0.805,1.067l53.74,15.64c1.14,0.333 1.88,-0.073 2.22,-1.22l3.06,-10.26" style="fill:none;fill-rule:nonzero;stroke:#cfcfcf;stroke-width:2px;"/><path d="M125.244,100.577l13.95,-47.86c0.192,-0.669 -0.201,-1.377 -0.87,-1.57l-54.38,-15.62c-0.499,-0.142 -1.027,0.146 -1.17,0.64l-12.55,42.34" style="fill:none;fill-rule:nonzero;stroke:#dedede;stroke-width:2px;"/><path d="M125.244,100.577c0.107,-0.727 0.034,-1.267 -0.22,-1.62c-0.206,-0.287 -0.503,-0.443 -0.89,-0.47c-0.433,-0.033 -0.713,-0.253 -0.84,-0.66c-0.133,-0.413 -0.376,-0.49 -0.73,-0.23l-1.15,0.88c-0.236,0.185 -0.533,0.265 -0.82,0.22c-1.44,-0.227 -2.693,-0.77 -3.76,-1.63" style="fill:none;fill-rule:nonzero;stroke:#aeaeae;stroke-width:2px;"/><path d="M116.834,97.067l3.73,0.79c0.549,0.117 1.101,-0.212 1.26,-0.75l12.47,-42.11c0.028,-0.094 0.042,-0.192 0.042,-0.291c0,-0.457 -0.303,-0.861 -0.742,-0.989l-46.21,-13.41c-0.664,-0.192 -1.368,0.196 -1.56,0.86l-11.35,39.35" style="fill:none;fill-rule:nonzero;stroke:#dedede;stroke-width:2px;"/><path d="M74.474,80.517c0.04,-0.287 0.037,-0.523 -0.01,-0.71c-0.106,-0.413 -0.346,-0.52 -0.72,-0.32l-0.69,0.38c-0.373,0.2 -0.676,0.123 -0.91,-0.23c-0.713,-1.087 -1.353,-1.463 -1.92,-1.13" style="fill:none;fill-rule:nonzero;stroke:#aeaeae;stroke-width:2px;"/><path d="M116.834,97.067l-42.81,-12.5c-0.361,-0.106 -0.572,-0.488 -0.47,-0.85l0.92,-3.2" style="fill:none;fill-rule:nonzero;stroke:#cfcfcf;stroke-width:2px;"/><path d="M100.894,58.997l0.47,-4.61c0.001,-0.003 0.001,-0.007 0.001,-0.011c0,-0.024 -0.017,-0.045 -0.041,-0.049l-0.06,0c-1.182,-0.121 -2.264,0.84 -2.4,2.13c-0.133,1.291 0.728,2.455 1.91,2.58l0.06,0.01c0.004,0.001 0.007,0.001 0.01,0.001c0.028,0 0.05,-0.022 0.05,-0.05c0,-0 0,-0.001 0,-0.001" style="fill:none;fill-rule:nonzero;stroke:#dedede;stroke-width:2px;"/><path d="M100.724,60.907c-1.48,-0.973 -2.723,-2.2 -3.73,-3.68c-0.076,-0.111 -0.203,-0.178 -0.338,-0.178c-0.194,-0 -0.363,0.138 -0.402,0.328l-1.38,6.37c-0.014,0.062 -0.021,0.126 -0.021,0.19c-0,0.418 0.308,0.777 0.721,0.84c1.79,0.29 3.31,0.58 5.02,-0.36c1.6,-0.887 3.24,-1.593 4.92,-2.12c1.154,-0.367 1.924,-1.12 2.31,-2.26c0.227,-0.667 0.007,-0.893 -0.66,-0.68l-0.49,0.16c-0.267,0.088 -0.562,-0.02 -0.71,-0.26l-2.62,-4.23c-0.306,-0.493 -0.496,-0.453 -0.57,0.12l-0.64,5.11c-0.126,0.973 -0.596,1.19 -1.41,0.65" style="fill:none;fill-rule:nonzero;stroke:#dedede;stroke-width:2px;"/><path d="M87.624,63.637c-1.833,-0.387 -3.63,-0.917 -5.39,-1.59c-0.553,-0.207 -0.913,-0.027 -1.08,0.54l-5.3,17.98c-0.012,0.039 -0.018,0.079 -0.018,0.12c0,0.224 0.184,0.409 0.408,0.41c5.274,-0.06 10.894,-0.003 16.86,0.17c1.14,0.04 2.797,-0.14 4.97,-0.54c0.414,-0.08 0.52,-0.303 0.32,-0.67l-1.63,-2.97c-0.016,-0.029 -0.031,-0.06 -0.045,-0.09c-0.363,-0.781 -0.022,-1.721 0.754,-2.081c0.03,-0.014 0.06,-0.027 0.091,-0.039c4.28,-1.66 9.59,0.55 14.11,-0.88c0.514,-0.16 0.657,-0.487 0.43,-0.98l-0.16,-0.37c-0.16,-0.353 -0.18,-0.713 -0.06,-1.08c0.76,-2.3 1.66,-4.16 1.26,-6.75c-0.26,-1.707 -0.446,-3.347 -0.56,-4.92c-0.028,-0.423 -0.384,-0.756 -0.808,-0.756c-0.133,0 -0.264,0.033 -0.382,0.096c-2.09,1.12 -3.09,3.34 -5.13,4.13c-3.54,1.38 -7.256,3.083 -11.15,5.11c-1.193,0.627 -1.56,0.31 -1.1,-0.95c0.027,-0.067 0.064,-0.103 0.11,-0.11c0.707,-0.127 1.27,-0.403 1.69,-0.83c0.36,-0.373 0.28,-0.553 -0.24,-0.54c-0.46,0.013 -0.896,-0.05 -1.31,-0.19c-0.213,-0.08 -0.346,-0.23 -0.4,-0.45c-0.73,-3.04 0.71,-5.53 1.14,-8.48c0.003,-0.021 0.004,-0.043 0.004,-0.064c-0.008,-0.186 -0.163,-0.334 -0.344,-0.326c-0.023,0 -0.047,0.004 -0.07,0.01c-3.606,0.867 -6.756,2.603 -9.45,5.21c-0.088,0.088 -0.137,0.208 -0.137,0.332c-0,0.204 0.133,0.386 0.327,0.448c0.794,0.247 1.58,0.543 2.36,0.89c0.674,0.293 0.65,0.363 -0.07,0.21" style="fill:none;fill-rule:nonzero;stroke:#e6e6e6;stroke-width:2px;"/><path d="M116.044,63.487c-0.82,-0.14 -1.41,-0.64 -1.77,-1.5c-0.012,-0.032 -0.038,-0.06 -0.07,-0.076c-0.069,-0.036 -0.152,-0.012 -0.185,0.052c-0.017,0.032 -0.018,0.069 -0.005,0.104c0.92,3.81 0.49,6.15 -0.79,9.48c-0.05,0.131 -0.076,0.27 -0.076,0.41c-0,0.626 0.515,1.14 1.14,1.14c0.005,0 0.011,0 0.016,0l5.56,-0.08c0.454,-0.007 0.574,-0.21 0.36,-0.61c-0.92,-1.75 -2.18,-3.38 -2.75,-5.29c-0.28,-0.933 -0.52,-1.913 -0.72,-2.94c-0.073,-0.393 -0.31,-0.623 -0.71,-0.69" style="fill:none;fill-rule:nonzero;stroke:#dedede;stroke-width:2px;"/><path d="M125.874,78.517l0.79,-2.69c0.154,-0.52 -0.02,-0.883 -0.52,-1.09c-0.833,-0.34 -1.666,-0.507 -2.5,-0.5c-0.3,0.003 -0.545,0.25 -0.545,0.55c-0,0.091 0.022,0.18 0.065,0.26l1.93,3.55c0.327,0.613 0.587,0.587 0.78,-0.08" style="fill:none;fill-rule:nonzero;stroke:#e6e6e6;stroke-width:2px;"/><path d="M107.474,84.727c-1.32,0.62 -2.753,0.96 -4.3,1.02c-4.18,0.167 -8.383,0.35 -12.61,0.55c-0.275,0.013 -0.524,0.164 -0.66,0.4c-0.366,0.607 -0.44,0.943 -0.22,1.01c9.94,2.933 20.004,5.893 30.19,8.88c0.075,0.022 0.152,0.034 0.23,0.034c0.358,-0 0.674,-0.24 0.77,-0.584l4.08,-14.17c0.103,-0.364 0.056,-0.756 -0.13,-1.09l-3.1,-5.39c-0.2,-0.347 -0.496,-0.55 -0.89,-0.61c-2.826,-0.447 -5.116,0.09 -6.87,1.61c-0.4,0.347 -0.866,0.527 -1.4,0.54l-7.87,0.18c-0.361,0.009 -0.653,0.309 -0.653,0.67c0,0.171 0.066,0.336 0.183,0.46l3.74,3.97c0.277,0.293 0.431,0.681 0.431,1.084c-0,0.617 -0.361,1.179 -0.921,1.436" style="fill:none;fill-rule:nonzero;stroke:#e6e6e6;stroke-width:2px;"/><rect x="0" y="0" width="190" height="150" style="fill:#eee;"/></g><path d="M96.564,108.657c-10.44,-3.293 -20.74,-6.393 -30.9,-9.3c-2.893,-0.827 -3.94,-2.683 -3.14,-5.57c1.434,-5.153 4.56,-15.75 9.38,-31.79l7.76,-26.69c0.515,-1.765 2.145,-2.987 3.984,-2.987c0.395,-0 0.787,0.056 1.166,0.167c17.52,5.167 34.717,10.1 51.59,14.8c4.27,1.19 7.04,2.36 5.52,7.55c-5.313,18.153 -10.633,36.307 -15.96,54.46c-0.38,1.287 -0.906,2.507 -1.58,3.66c-1.24,2.1 -3.093,2.773 -5.56,2.02c-7.56,-2.293 -14.98,-4.4 -22.26,-6.32Zm-26.34,-30.15l-4.76,16.53c-0.03,0.102 -0.045,0.207 -0.045,0.313c0,0.494 0.33,0.931 0.805,1.067l53.74,15.64c1.14,0.333 1.88,-0.073 2.22,-1.22l3.06,-10.26l13.95,-47.86c0.192,-0.669 -0.201,-1.377 -0.87,-1.57l-54.38,-15.62c-0.499,-0.142 -1.027,0.146 -1.17,0.64l-12.55,42.34Z" style="fill:#fff;fill-rule:nonzero;"/><path d="M125.244,100.577c0.107,-0.727 0.034,-1.267 -0.22,-1.62c-0.206,-0.287 -0.503,-0.443 -0.89,-0.47c-0.433,-0.033 -0.713,-0.253 -0.84,-0.66c-0.133,-0.413 -0.376,-0.49 -0.73,-0.23l-1.15,0.88c-0.236,0.185 -0.533,0.265 -0.82,0.22c-1.44,-0.227 -2.693,-0.77 -3.76,-1.63l3.73,0.79c0.549,0.117 1.101,-0.212 1.26,-0.75l12.47,-42.11c0.028,-0.094 0.042,-0.192 0.042,-0.291c0,-0.457 -0.303,-0.861 -0.742,-0.989l-46.21,-13.41c-0.664,-0.192 -1.368,0.196 -1.56,0.86l-11.35,39.35c0.04,-0.287 0.037,-0.523 -0.01,-0.71c-0.106,-0.413 -0.346,-0.52 -0.72,-0.32l-0.69,0.38c-0.373,0.2 -0.676,0.123 -0.91,-0.23c-0.713,-1.087 -1.353,-1.463 -1.92,-1.13l12.55,-42.34c0.143,-0.494 0.671,-0.782 1.17,-0.64l54.38,15.62c0.669,0.193 1.062,0.901 0.87,1.57l-13.95,47.86Z" style="fill:#bdbdbd;fill-rule:nonzero;"/><path d="M116.834,97.067l-42.81,-12.5c-0.361,-0.106 -0.572,-0.488 -0.47,-0.85l0.92,-3.2l11.35,-39.35c0.192,-0.664 0.896,-1.052 1.56,-0.86l46.21,13.41c0.439,0.128 0.742,0.532 0.742,0.989c0,0.099 -0.014,0.197 -0.042,0.291l-12.47,42.11c-0.159,0.538 -0.711,0.867 -1.26,0.75l-3.73,-0.79Zm-15.94,-38.07l0.47,-4.61c0.001,-0.003 0.001,-0.007 0.001,-0.011c0,-0.024 -0.017,-0.045 -0.041,-0.049l-0.06,0c-1.182,-0.121 -2.264,0.84 -2.4,2.13c-0.133,1.291 0.728,2.455 1.91,2.58l0.06,0.01c0.004,0.001 0.007,0.001 0.01,0.001c0.028,0 0.05,-0.022 0.05,-0.05c0,-0 0,-0.001 0,-0.001Zm-0.17,1.91c-1.48,-0.973 -2.723,-2.2 -3.73,-3.68c-0.076,-0.111 -0.203,-0.178 -0.338,-0.178c-0.194,-0 -0.363,0.138 -0.402,0.328l-1.38,6.37c-0.014,0.062 -0.021,0.126 -0.021,0.19c-0,0.418 0.308,0.777 0.721,0.84c1.79,0.29 3.31,0.58 5.02,-0.36c1.6,-0.887 3.24,-1.593 4.92,-2.12c1.154,-0.367 1.924,-1.12 2.31,-2.26c0.227,-0.667 0.007,-0.893 -0.66,-0.68l-0.49,0.16c-0.267,0.088 -0.562,-0.02 -0.71,-0.26l-2.62,-4.23c-0.306,-0.493 -0.496,-0.453 -0.57,0.12l-0.64,5.11c-0.126,0.973 -0.596,1.19 -1.41,0.65Zm-13.1,2.73c-1.833,-0.387 -3.63,-0.917 -5.39,-1.59c-0.553,-0.207 -0.913,-0.027 -1.08,0.54l-5.3,17.98c-0.012,0.039 -0.018,0.079 -0.018,0.12c0,0.224 0.184,0.409 0.408,0.41c5.274,-0.06 10.894,-0.003 16.86,0.17c1.14,0.04 2.797,-0.14 4.97,-0.54c0.414,-0.08 0.52,-0.303 0.32,-0.67l-1.63,-2.97c-0.016,-0.029 -0.031,-0.06 -0.045,-0.09c-0.363,-0.781 -0.022,-1.721 0.754,-2.081c0.03,-0.014 0.06,-0.027 0.091,-0.039c4.28,-1.66 9.59,0.55 14.11,-0.88c0.514,-0.16 0.657,-0.487 0.43,-0.98l-0.16,-0.37c-0.16,-0.353 -0.18,-0.713 -0.06,-1.08c0.76,-2.3 1.66,-4.16 1.26,-6.75c-0.26,-1.707 -0.446,-3.347 -0.56,-4.92c-0.028,-0.423 -0.384,-0.756 -0.808,-0.756c-0.133,0 -0.264,0.033 -0.382,0.096c-2.09,1.12 -3.09,3.34 -5.13,4.13c-3.54,1.38 -7.256,3.083 -11.15,5.11c-1.193,0.627 -1.56,0.31 -1.1,-0.95c0.027,-0.067 0.064,-0.103 0.11,-0.11c0.707,-0.127 1.27,-0.403 1.69,-0.83c0.36,-0.373 0.28,-0.553 -0.24,-0.54c-0.46,0.013 -0.896,-0.05 -1.31,-0.19c-0.213,-0.08 -0.346,-0.23 -0.4,-0.45c-0.73,-3.04 0.71,-5.53 1.14,-8.48c0.003,-0.021 0.004,-0.043 0.004,-0.064c-0.008,-0.186 -0.163,-0.334 -0.344,-0.326c-0.023,0 -0.047,0.004 -0.07,0.01c-3.606,0.867 -6.756,2.603 -9.45,5.21c-0.088,0.088 -0.137,0.208 -0.137,0.332c-0,0.204 0.133,0.386 0.327,0.448c0.794,0.247 1.58,0.543 2.36,0.89c0.674,0.293 0.65,0.363 -0.07,0.21Zm28.42,-0.15c-0.82,-0.14 -1.41,-0.64 -1.77,-1.5c-0.012,-0.032 -0.038,-0.06 -0.07,-0.076c-0.069,-0.036 -0.152,-0.012 -0.185,0.052c-0.017,0.032 -0.018,0.069 -0.005,0.104c0.92,3.81 0.49,6.15 -0.79,9.48c-0.05,0.131 -0.076,0.27 -0.076,0.41c-0,0.626 0.515,1.14 1.14,1.14c0.005,0 0.011,0 0.016,0l5.56,-0.08c0.454,-0.007 0.574,-0.21 0.36,-0.61c-0.92,-1.75 -2.18,-3.38 -2.75,-5.29c-0.28,-0.933 -0.52,-1.913 -0.72,-2.94c-0.073,-0.393 -0.31,-0.623 -0.71,-0.69Zm9.83,15.03l0.79,-2.69c0.154,-0.52 -0.02,-0.883 -0.52,-1.09c-0.833,-0.34 -1.666,-0.507 -2.5,-0.5c-0.3,0.003 -0.545,0.25 -0.545,0.55c-0,0.091 0.022,0.18 0.065,0.26l1.93,3.55c0.327,0.613 0.587,0.587 0.78,-0.08Zm-18.4,6.21c-1.32,0.62 -2.753,0.96 -4.3,1.02c-4.18,0.167 -8.383,0.35 -12.61,0.55c-0.275,0.013 -0.524,0.164 -0.66,0.4c-0.366,0.607 -0.44,0.943 -0.22,1.01c9.94,2.933 20.004,5.893 30.19,8.88c0.075,0.022 0.152,0.034 0.23,0.034c0.358,-0 0.674,-0.24 0.77,-0.584l4.08,-14.17c0.103,-0.364 0.056,-0.756 -0.13,-1.09l-3.1,-5.39c-0.2,-0.347 -0.496,-0.55 -0.89,-0.61c-2.826,-0.447 -5.116,0.09 -6.87,1.61c-0.4,0.347 -0.866,0.527 -1.4,0.54l-7.87,0.18c-0.361,0.009 -0.653,0.309 -0.653,0.67c0,0.171 0.066,0.336 0.183,0.46l3.74,3.97c0.277,0.293 0.431,0.681 0.431,1.084c-0,0.617 -0.361,1.179 -0.921,1.436Z" style="fill:#fff;fill-rule:nonzero;"/><path d="M100.894,58.997c0,0 0,0.001 0,0.001c0,0.028 -0.022,0.05 -0.05,0.05c-0.003,0 -0.006,-0 -0.01,-0.001l-0.06,-0.01c-1.182,-0.125 -2.043,-1.289 -1.91,-2.58c0.136,-1.29 1.218,-2.251 2.4,-2.13l0.06,0c0.024,0.004 0.041,0.025 0.041,0.049c0,0.004 0,0.008 -0.001,0.011l-0.47,4.61Z" style="fill:#bdbdbd;fill-rule:nonzero;"/><path d="M100.724,60.907c0.814,0.54 1.284,0.323 1.41,-0.65l0.64,-5.11c0.074,-0.573 0.264,-0.613 0.57,-0.12l2.62,4.23c0.148,0.24 0.443,0.348 0.71,0.26l0.49,-0.16c0.667,-0.213 0.887,0.013 0.66,0.68c-0.386,1.14 -1.156,1.893 -2.31,2.26c-1.68,0.527 -3.32,1.233 -4.92,2.12c-1.71,0.94 -3.23,0.65 -5.02,0.36c-0.413,-0.063 -0.721,-0.422 -0.721,-0.84c-0,-0.064 0.007,-0.128 0.021,-0.19l1.38,-6.37c0.039,-0.19 0.208,-0.328 0.402,-0.328c0.135,-0 0.262,0.067 0.338,0.178c1.007,1.48 2.25,2.707 3.73,3.68Z" style="fill:#bdbdbd;fill-rule:nonzero;"/><path d="M87.694,63.427c-0.78,-0.347 -1.566,-0.643 -2.36,-0.89c-0.194,-0.062 -0.327,-0.244 -0.327,-0.448c-0,-0.124 0.049,-0.244 0.137,-0.332c2.694,-2.607 5.844,-4.343 9.45,-5.21c0.023,-0.006 0.047,-0.01 0.07,-0.01c0.181,-0.008 0.336,0.14 0.344,0.326c0,0.021 -0.001,0.043 -0.004,0.064c-0.43,2.95 -1.87,5.44 -1.14,8.48c0.054,0.22 0.187,0.37 0.4,0.45c0.414,0.14 0.85,0.203 1.31,0.19c0.52,-0.013 0.6,0.167 0.24,0.54c-0.42,0.427 -0.983,0.703 -1.69,0.83c-0.046,0.007 -0.083,0.043 -0.11,0.11c-0.46,1.26 -0.093,1.577 1.1,0.95c3.894,-2.027 7.61,-3.73 11.15,-5.11c2.04,-0.79 3.04,-3.01 5.13,-4.13c0.118,-0.063 0.249,-0.096 0.382,-0.096c0.424,0 0.78,0.333 0.808,0.756c0.114,1.573 0.3,3.213 0.56,4.92c0.4,2.59 -0.5,4.45 -1.26,6.75c-0.12,0.367 -0.1,0.727 0.06,1.08l0.16,0.37c0.227,0.493 0.084,0.82 -0.43,0.98c-4.52,1.43 -9.83,-0.78 -14.11,0.88c-0.031,0.012 -0.061,0.025 -0.091,0.039c-0.776,0.36 -1.117,1.3 -0.754,2.081c0.014,0.03 0.029,0.061 0.045,0.09l1.63,2.97c0.2,0.367 0.094,0.59 -0.32,0.67c-2.173,0.4 -3.83,0.58 -4.97,0.54c-5.966,-0.173 -11.586,-0.23 -16.86,-0.17c-0.224,-0.001 -0.408,-0.186 -0.408,-0.41c0,-0.041 0.006,-0.081 0.018,-0.12l5.3,-17.98c0.167,-0.567 0.527,-0.747 1.08,-0.54c1.76,0.673 3.557,1.203 5.39,1.59c0.72,0.153 0.744,0.083 0.07,-0.21Z" style="fill:#ccc;fill-rule:nonzero;"/><path d="M116.044,63.487c0.4,0.067 0.637,0.297 0.71,0.69c0.2,1.027 0.44,2.007 0.72,2.94c0.57,1.91 1.83,3.54 2.75,5.29c0.214,0.4 0.094,0.603 -0.36,0.61l-5.56,0.08c-0.005,0 -0.011,0 -0.016,0c-0.625,0 -1.14,-0.514 -1.14,-1.14c-0,-0.14 0.026,-0.279 0.076,-0.41c1.28,-3.33 1.71,-5.67 0.79,-9.48c-0.013,-0.035 -0.012,-0.072 0.005,-0.104c0.033,-0.064 0.116,-0.088 0.185,-0.052c0.032,0.016 0.058,0.044 0.07,0.076c0.36,0.86 0.95,1.36 1.77,1.5Z" style="fill:#bdbdbd;fill-rule:nonzero;"/><path d="M71.904,61.997c-4.82,16.04 -7.946,26.637 -9.38,31.79c-0.8,2.887 0.247,4.743 3.14,5.57c10.16,2.907 20.46,6.007 30.9,9.3l-30.87,8.84c-2.466,0.712 -5.086,-0.717 -5.83,-3.18c-4.093,-13.54 -8.09,-27.12 -11.99,-40.74c-1.02,-3.58 1.67,-5.13 4.87,-6.09c6.247,-1.88 12.634,-3.71 19.16,-5.49Z" style="fill:#9f9f9f;fill-rule:nonzero;"/><path d="M125.874,78.517c-0.193,0.667 -0.453,0.693 -0.78,0.08l-1.93,-3.55c-0.043,-0.08 -0.065,-0.169 -0.065,-0.26c-0,-0.3 0.245,-0.547 0.545,-0.55c0.834,-0.007 1.667,0.16 2.5,0.5c0.5,0.207 0.674,0.57 0.52,1.09l-0.79,2.69Z" style="fill:#ccc;fill-rule:nonzero;"/><path d="M107.474,84.727c0.56,-0.257 0.921,-0.819 0.921,-1.436c-0,-0.403 -0.154,-0.791 -0.431,-1.084l-3.74,-3.97c-0.117,-0.124 -0.183,-0.289 -0.183,-0.46c0,-0.361 0.292,-0.661 0.653,-0.67l7.87,-0.18c0.534,-0.013 1,-0.193 1.4,-0.54c1.754,-1.52 4.044,-2.057 6.87,-1.61c0.394,0.06 0.69,0.263 0.89,0.61l3.1,5.39c0.186,0.334 0.233,0.726 0.13,1.09l-4.08,14.17c-0.096,0.344 -0.412,0.584 -0.77,0.584c-0.078,-0 -0.155,-0.012 -0.23,-0.034c-10.186,-2.987 -20.25,-5.947 -30.19,-8.88c-0.22,-0.067 -0.146,-0.403 0.22,-1.01c0.136,-0.236 0.385,-0.387 0.66,-0.4c4.227,-0.2 8.43,-0.383 12.61,-0.55c1.547,-0.06 2.98,-0.4 4.3,-1.02Z" style="fill:#ccc;fill-rule:nonzero;"/><path d="M74.474,80.517l-0.92,3.2c-0.102,0.362 0.109,0.744 0.47,0.85l42.81,12.5c1.067,0.86 2.32,1.403 3.76,1.63c0.287,0.045 0.584,-0.035 0.82,-0.22l1.15,-0.88c0.354,-0.26 0.597,-0.183 0.73,0.23c0.127,0.407 0.407,0.627 0.84,0.66c0.387,0.027 0.684,0.183 0.89,0.47c0.254,0.353 0.327,0.893 0.22,1.62l-3.06,10.26c-0.34,1.147 -1.08,1.553 -2.22,1.22l-53.74,-15.64c-0.475,-0.136 -0.805,-0.573 -0.805,-1.067c0,-0.106 0.015,-0.211 0.045,-0.313l4.76,-16.53c0.567,-0.333 1.207,0.043 1.92,1.13c0.234,0.353 0.537,0.43 0.91,0.23l0.69,-0.38c0.374,-0.2 0.614,-0.093 0.72,0.32c0.047,0.187 0.05,0.423 0.01,0.71Z" style="fill:#9f9f9f;fill-rule:nonzero;"/></svg>