<?xml version="1.0" encoding="UTF-8" standalone="no"?>
<!DOCTYPE svg PUBLIC "-//W3C//DTD SVG 1.1//EN" "http://www.w3.org/Graphics/SVG/1.1/DTD/svg11.dtd">
<svg xmlns="http://www.w3.org/2000/svg" version="1.1" viewBox="0.00 0.00 190.00 150.00">
<g stroke-width="2.00" fill="none" stroke-linecap="butt">
<path stroke="#c7c7c7" vector-effect="non-scaling-stroke" d="
  M 71.03 35.46
  Q 61.24 38.13 51.87 40.95
  C 48.67 41.91 45.98 43.46 47.00 47.04
  Q 52.85 67.47 58.99 87.78
  A 4.73 4.72 73.6 0 0 64.82 90.96
  L 95.69 82.12"
/>
<path stroke="#f7f7f7" vector-effect="non-scaling-stroke" d="
  M 95.69 82.12
  Q 106.61 85.00 117.95 88.44
  Q 121.65 89.57 123.51 86.42
  Q 124.52 84.69 125.09 82.76
  Q 133.08 55.53 141.05 28.30
  C 142.57 23.11 139.80 21.94 135.53 20.75
  Q 110.22 13.70 83.94 5.95
  A 4.15 4.15 0.0 0 0 78.79 8.77
  L 71.03 35.46"
/>
<path stroke="#cfcfcf" vector-effect="non-scaling-stroke" d="
  M 95.69 82.12
  Q 80.03 77.18 64.79 72.82
  Q 60.45 71.58 61.65 67.25
  Q 63.80 59.52 71.03 35.46"
/>
<path stroke="#b2b2b2" vector-effect="non-scaling-stroke" d="
  M 71.35 111.96
  A 6.27 6.27 0.0 0 0 65.08 105.69
  L 63.86 105.69
  A 6.27 6.27 0.0 0 0 57.59 111.96
  L 57.59 113.72
  A 6.27 6.27 0.0 0 0 63.86 119.99
  L 65.08 119.99
  A 6.27 6.27 0.0 0 0 71.35 113.72
  L 71.35 111.96"
/>
<path stroke="#b2b2b2" vector-effect="non-scaling-stroke" d="
  M 129.01 115.18
  L 128.95 117.01
  Q 128.93 117.57 128.39 117.64
  C 123.74 118.30 121.78 114.56 123.11 110.73
  C 124.33 107.20 128.10 107.63 131.00 108.79
  Q 131.73 109.07 131.72 108.29
  L 131.70 107.21
  Q 131.69 106.57 131.08 106.35
  C 115.65 100.93 114.85 124.89 131.53 119.12
  Q 132.01 118.96 132.01 118.45
  L 132.01 113.06
  Q 132.01 112.36 131.31 112.36
  L 127.28 112.34
  A 0.62 0.62 0.0 0 0 126.66 112.98
  L 126.69 114.00
  Q 126.71 114.79 127.50 114.72
  L 128.43 114.64
  Q 129.03 114.58 129.01 115.18"
/>
<path stroke="#b2b2b2" vector-effect="non-scaling-stroke" d="
  M 46.60 111.36
  L 50.89 119.13
  Q 51.18 119.64 51.76 119.65
  L 54.22 119.69
  A 0.66 0.66 0.0 0 0 54.89 119.03
  L 54.89 106.70
  Q 54.89 106.02 54.20 106.01
  L 52.27 106.00
  Q 51.79 106.00 51.79 106.48
  L 51.77 114.22
  Q 51.76 115.45 51.18 114.36
  L 47.02 106.56
  A 0.98 0.98 0.0 0 0 46.17 106.04
  L 43.76 105.99
  Q 43.00 105.97 43.00 106.74
  L 42.99 119.22
  Q 42.99 119.70 43.47 119.69
  L 45.55 119.66
  Q 46.01 119.66 46.02 119.20
  L 46.06 111.50
  Q 46.06 110.38 46.60 111.36"
/>
<path stroke="#b2b2b2" vector-effect="non-scaling-stroke" d="
  M 84.03 106.42
  A 0.41 0.41 0.0 0 0 83.62 106.01
  L 80.98 106.01
  A 0.41 0.41 0.0 0 0 80.57 106.42
  L 80.57 119.26
  A 0.41 0.41 0.0 0 0 80.98 119.67
  L 83.62 119.67
  A 0.41 0.41 0.0 0 0 84.03 119.26
  L 84.03 106.42"
/>
<path stroke="#b2b2b2" vector-effect="non-scaling-stroke" d="
  M 91.02 110.70
  L 93.49 116.27
  Q 93.66 116.65 94.03 116.84
  C 95.06 117.37 96.22 117.05 96.69 115.91
  Q 97.86 113.12 99.01 110.66
  Q 99.47 109.66 99.46 110.76
  L 99.40 119.24
  A 0.36 0.36 0.0 0 0 99.74 119.60
  L 102.02 119.68
  A 0.46 0.45 -88.2 0 0 102.49 119.23
  L 102.50 106.75
  Q 102.50 106.00 101.75 106.00
  L 98.73 106.01
  Q 98.17 106.01 97.95 106.52
  L 95.23 112.75
  A 0.28 0.28 0.0 0 1 94.71 112.75
  L 92.06 106.61
  Q 91.81 106.02 91.17 106.01
  L 88.13 106.00
  Q 87.50 106.00 87.50 106.62
  L 87.50 119.18
  Q 87.50 119.62 87.93 119.63
  L 90.04 119.70
  A 0.49 0.49 0.0 0 0 90.55 119.21
  L 90.54 110.80
  Q 90.54 109.63 91.02 110.70"
/>
<path stroke="#b2b2b2" vector-effect="non-scaling-stroke" d="
  M 114.42 117.43
  L 114.84 119.06
  A 0.77 0.76 -6.4 0 0 115.57 119.64
  L 117.91 119.64
  Q 118.57 119.64 118.34 119.02
  L 113.86 106.79
  Q 113.57 106.00 112.73 106.00
  L 110.24 106.01
  Q 109.40 106.01 109.11 106.79
  L 104.54 119.30
  A 0.28 0.27 -80.5 0 0 104.80 119.67
  L 107.53 119.62
  Q 108.24 119.60 108.25 118.89
  Q 108.26 118.09 108.62 117.38
  Q 108.82 116.99 109.27 116.98
  L 113.83 116.97
  A 0.62 0.61 82.6 0 1 114.42 117.43"
/>
<path stroke="#b2b2b2" vector-effect="non-scaling-stroke" d="
  M 138.52 114.35
  A 0.46 0.46 0.0 0 1 138.97 113.89
  L 143.96 113.81
  A 0.46 0.46 0.0 0 0 144.41 113.32
  L 144.34 112.00
  A 0.46 0.46 0.0 0 0 143.88 111.57
  L 138.95 111.58
  A 0.46 0.46 0.0 0 1 138.49 111.11
  L 138.52 108.76
  A 0.46 0.46 0.0 0 1 138.98 108.31
  L 143.85 108.25
  A 0.46 0.46 0.0 0 0 144.31 107.81
  L 144.34 106.50
  A 0.46 0.46 0.0 0 0 143.88 106.03
  L 135.53 106.00
  A 0.46 0.46 0.0 0 0 135.07 106.46
  L 135.08 119.19
  A 0.46 0.46 0.0 0 0 135.54 119.65
  L 144.28 119.66
  A 0.46 0.46 0.0 0 0 144.74 119.19
  L 144.72 117.77
  A 0.46 0.46 0.0 0 0 144.25 117.31
  L 138.97 117.35
  A 0.46 0.46 0.0 0 1 138.50 116.88
  L 138.52 114.35"
/>
<path stroke="#b2b2b2" vector-effect="non-scaling-stroke" d="
  M 41.83 140.29
  A 0.42 0.42 0.0 0 1 42.24 139.98
  L 47.18 140.02
  A 0.42 0.42 0.0 0 1 47.58 140.32
  L 48.17 142.34
  A 0.42 0.42 0.0 0 0 48.56 142.64
  L 51.23 142.74
  A 0.42 0.42 0.0 0 0 51.64 142.17
  L 46.95 129.34
  A 0.42 0.42 0.0 0 0 46.56 129.07
  L 42.92 129.00
  A 0.42 0.42 0.0 0 0 42.52 129.28
  L 37.78 142.14
  A 0.42 0.42 0.0 0 0 38.18 142.71
  L 40.85 142.69
  A 0.42 0.42 0.0 0 0 41.25 142.38
  L 41.83 140.29"
/>
<path stroke="#b2b2b2" vector-effect="non-scaling-stroke" d="
  M 58.06 138.24
  A 0.31 0.31 0.0 0 1 57.48 138.25
  L 54.25 129.24
  A 0.31 0.31 0.0 0 0 53.96 129.03
  L 51.11 129.03
  A 0.31 0.31 0.0 0 0 50.82 129.45
  L 55.64 142.50
  A 0.31 0.31 0.0 0 0 55.93 142.70
  L 59.61 142.69
  A 0.31 0.31 0.0 0 0 59.90 142.49
  L 64.68 129.48
  A 0.31 0.31 0.0 0 0 64.39 129.07
  L 61.51 129.04
  A 0.31 0.31 0.0 0 0 61.22 129.25
  L 58.06 138.24"
/>
<path stroke="#b2b2b2" vector-effect="non-scaling-stroke" d="
  M 67.94 140.26
  A 0.36 0.36 0.0 0 1 68.28 140.00
  L 73.29 140.00
  A 0.36 0.36 0.0 0 1 73.64 140.26
  L 74.29 142.41
  A 0.36 0.36 0.0 0 0 74.63 142.67
  L 77.42 142.73
  A 0.36 0.36 0.0 0 0 77.77 142.24
  L 73.01 129.27
  A 0.36 0.36 0.0 0 0 72.67 129.03
  L 68.96 129.03
  A 0.36 0.36 0.0 0 0 68.62 129.27
  L 63.86 142.17
  A 0.36 0.36 0.0 0 0 64.19 142.65
  L 66.98 142.71
  A 0.36 0.36 0.0 0 0 67.33 142.45
  L 67.94 140.26"
/>
<path stroke="#b2b2b2" vector-effect="non-scaling-stroke" d="
  M 82.92 129.41
  A 0.39 0.39 0.0 0 0 82.53 129.02
  L 79.85 129.02
  A 0.39 0.39 0.0 0 0 79.46 129.41
  L 79.46 142.31
  A 0.39 0.39 0.0 0 0 79.85 142.70
  L 82.53 142.70
  A 0.39 0.39 0.0 0 0 82.92 142.31
  L 82.92 129.41"
/>
<path stroke="#b2b2b2" vector-effect="non-scaling-stroke" d="
  M 90.19 140.39
  A 0.42 0.42 0.0 0 1 89.77 139.97
  L 89.81 129.44
  A 0.42 0.42 0.0 0 0 89.38 129.02
  L 86.72 129.05
  A 0.42 0.42 0.0 0 0 86.31 129.47
  L 86.33 142.27
  A 0.42 0.42 0.0 0 0 86.75 142.69
  L 95.57 142.71
  A 0.42 0.42 0.0 0 0 95.99 142.28
  L 95.97 140.76
  A 0.42 0.42 0.0 0 0 95.54 140.34
  L 90.19 140.39"
/>
<path stroke="#b2b2b2" vector-effect="non-scaling-stroke" d="
  M 100.90 140.35
  A 0.48 0.48 0.0 0 1 101.36 139.99
  L 106.23 140.00
  A 0.48 0.48 0.0 0 1 106.69 140.35
  L 107.26 142.32
  A 0.48 0.48 0.0 0 0 107.71 142.67
  L 110.27 142.75
  A 0.48 0.48 0.0 0 0 110.73 142.10
  L 106.05 129.35
  A 0.48 0.48 0.0 0 0 105.59 129.03
  L 102.03 129.04
  A 0.48 0.48 0.0 0 0 101.59 129.35
  L 96.94 142.08
  A 0.48 0.48 0.0 0 0 97.39 142.72
  L 99.91 142.69
  A 0.48 0.48 0.0 0 0 100.37 142.34
  L 100.90 140.35"
/>
<path stroke="#b2b2b2" vector-effect="non-scaling-stroke" d="
  M 121.98 134.97
  L 122.32 134.76
  Q 122.83 134.44 122.97 133.85
  C 124.33 127.99 116.70 128.82 113.05 129.09
  Q 112.47 129.13 112.47 129.71
  L 112.48 142.05
  Q 112.48 142.64 113.06 142.67
  Q 117.16 142.94 120.71 142.35
  C 124.10 141.79 124.52 137.41 121.96 135.71
  Q 121.40 135.33 121.98 134.97"
/>
<path stroke="#b2b2b2" vector-effect="non-scaling-stroke" d="
  M 130.40 140.33
  A 0.39 0.39 0.0 0 1 130.02 139.94
  L 130.11 129.44
  A 0.39 0.39 0.0 0 0 129.72 129.05
  L 127.09 129.01
  A 0.39 0.39 0.0 0 0 126.70 129.40
  L 126.69 142.30
  A 0.39 0.39 0.0 0 0 127.09 142.70
  L 135.91 142.59
  A 0.39 0.39 0.0 0 0 136.29 142.16
  L 136.16 140.81
  A 0.39 0.39 0.0 0 0 135.78 140.46
  L 130.40 140.33"
/>
<path stroke="#b2b2b2" vector-effect="non-scaling-stroke" d="
  M 141.95 137.09
  A 0.42 0.42 0.0 0 1 142.37 136.69
  L 147.35 136.61
  A 0.42 0.42 0.0 0 0 147.76 136.18
  L 147.75 134.94
  A 0.42 0.42 0.0 0 0 147.34 134.53
  L 142.32 134.36
  A 0.42 0.42 0.0 0 1 141.91 133.96
  L 141.83 131.94
  A 0.42 0.42 0.0 0 1 142.22 131.50
  L 147.45 131.17
  A 0.42 0.42 0.0 0 0 147.84 130.70
  L 147.71 129.56
  A 0.42 0.42 0.0 0 0 147.31 129.19
  L 138.96 128.96
  A 0.42 0.42 0.0 0 0 138.52 129.39
  L 138.65 142.17
  A 0.42 0.42 0.0 0 0 139.07 142.58
  L 147.68 142.46
  A 0.42 0.42 0.0 0 0 148.10 142.05
  L 148.14 140.97
  A 0.42 0.42 0.0 0 0 147.73 140.53
  L 142.17 140.47
  A 0.42 0.42 0.0 0 1 141.76 140.02
  L 141.95 137.09"
/>
<path stroke="#cfcfcf" vector-effect="non-scaling-stroke" d="
  M 69.35 51.97
  L 64.59 68.50
  A 1.11 1.11 0.0 0 0 65.35 69.88
  L 119.09 85.52
  Q 120.80 86.02 121.31 84.30
  L 124.37 74.04"
/>
<path stroke="#dedede" vector-effect="non-scaling-stroke" d="
  M 124.37 74.04
  L 138.32 26.18
  A 1.27 1.27 0.0 0 0 137.45 24.61
  L 83.07 8.99
  A 0.95 0.94 16.0 0 0 81.90 9.63
  L 69.35 51.97"
/>
<path stroke="#aeaeae" vector-effect="non-scaling-stroke" d="
  M 124.37 74.04
  Q 124.53 72.95 124.15 72.42
  Q 123.84 71.99 123.26 71.95
  Q 122.61 71.90 122.42 71.29
  Q 122.22 70.67 121.69 71.06
  L 120.54 71.94
  A 1.09 1.04 -58.8 0 1 119.72 72.16
  Q 117.56 71.82 115.96 70.53"
/>
<path stroke="#dedede" vector-effect="non-scaling-stroke" d="
  M 115.96 70.53
  L 119.69 71.32
  A 1.08 1.08 0.0 0 0 120.95 70.57
  L 133.42 28.46
  A 1.03 1.03 0.0 0 0 132.72 27.18
  L 86.51 13.77
  A 1.26 1.26 0.0 0 0 84.95 14.63
  L 73.60 53.98"
/>
<path stroke="#aeaeae" vector-effect="non-scaling-stroke" d="
  M 73.60 53.98
  Q 73.66 53.55 73.59 53.27
  Q 73.43 52.65 72.87 52.95
  L 72.18 53.33
  Q 71.62 53.63 71.27 53.10
  Q 70.20 51.47 69.35 51.97"
/>
<path stroke="#cfcfcf" vector-effect="non-scaling-stroke" d="
  M 115.96 70.53
  L 73.15 58.03
  A 0.69 0.69 0.0 0 1 72.68 57.18
  L 73.60 53.98"
/>
<path stroke="#dedede" vector-effect="non-scaling-stroke" d="
  M 100.02 32.46
  L 100.49 27.85
  A 0.05 0.05 0.0 0 0 100.45 27.79
  L 100.39 27.79
  A 2.37 2.17 -84.1 0 0 97.99 29.92
  L 97.99 29.92
  A 2.37 2.17 -84.1 0 0 99.90 32.50
  L 99.96 32.51
  A 0.05 0.05 0.0 0 0 100.02 32.46"
/>
<path stroke="#dedede" vector-effect="non-scaling-stroke" d="
  M 99.85 34.37
  Q 97.63 32.91 96.12 30.69
  A 0.41 0.41 0.0 0 0 95.38 30.84
  L 94.00 37.21
  A 0.85 0.85 0.0 0 0 94.70 38.24
  C 96.49 38.53 98.01 38.82 99.72 37.88
  Q 102.12 36.55 104.64 35.76
  Q 106.37 35.21 106.95 33.50
  Q 107.29 32.50 106.29 32.82
  L 105.80 32.98
  A 0.61 0.61 0.0 0 1 105.09 32.72
  L 102.47 28.49
  Q 102.01 27.75 101.90 28.61
  L 101.26 33.72
  Q 101.07 35.18 99.85 34.37"
/>
<path stroke="#e6e6e6" vector-effect="non-scaling-stroke" d="
  M 86.75 37.10
  Q 84.00 36.52 81.36 35.51
  Q 80.53 35.20 80.28 36.05
  L 74.98 54.03
  A 0.41 0.41 0.0 0 0 75.37 54.56
  Q 83.28 54.47 92.23 54.73
  Q 93.94 54.79 97.20 54.19
  Q 97.82 54.07 97.52 53.52
  L 95.89 50.55
  A 1.57 1.56 65.1 0 1 96.69 48.34
  C 100.97 46.68 106.28 48.89 110.80 47.46
  Q 111.57 47.22 111.23 46.48
  L 111.07 46.11
  Q 110.83 45.58 111.01 45.03
  C 111.77 42.73 112.67 40.87 112.27 38.28
  Q 111.88 35.72 111.71 33.36
  A 0.81 0.81 0.0 0 0 110.52 32.70
  C 108.43 33.82 107.43 36.04 105.39 36.83
  Q 100.08 38.90 94.24 41.94
  Q 92.45 42.88 93.14 40.99
  Q 93.18 40.89 93.25 40.88
  Q 94.31 40.69 94.94 40.05
  Q 95.48 39.49 94.70 39.51
  Q 94.01 39.53 93.39 39.32
  Q 93.07 39.20 92.99 38.87
  C 92.26 35.83 93.70 33.34 94.13 30.39
  A 0.34 0.33 87.7 0 0 93.72 30.01
  Q 88.31 31.31 84.27 35.22
  A 0.47 0.47 0.0 0 0 84.46 36.00
  Q 85.65 36.37 86.82 36.89
  Q 87.83 37.33 86.75 37.10"
/>
<path stroke="#dedede" vector-effect="non-scaling-stroke" d="
  M 115.17 36.95
  Q 113.94 36.74 113.40 35.45
  A 0.14 0.13 27.2 0 0 113.14 35.53
  C 114.06 39.34 113.63 41.68 112.35 45.01
  A 1.14 1.14 0.0 0 0 113.43 46.56
  L 118.99 46.48
  Q 119.67 46.47 119.35 45.87
  C 118.43 44.12 117.17 42.49 116.60 40.58
  Q 116.18 39.18 115.88 37.64
  Q 115.77 37.05 115.17 36.95"
/>
<path stroke="#e6e6e6" vector-effect="non-scaling-stroke" d="
  M 125.00 51.98
  L 125.79 49.29
  Q 126.02 48.51 125.27 48.20
  Q 124.02 47.69 122.77 47.70
  A 0.55 0.55 0.0 0 0 122.29 48.51
  L 124.22 52.06
  Q 124.71 52.98 125.00 51.98"
/>
<path stroke="#e6e6e6" vector-effect="non-scaling-stroke" d="
  M 106.60 58.19
  Q 104.62 59.12 102.30 59.21
  Q 96.03 59.46 89.69 59.76
  A 0.81 0.80 13.7 0 0 89.03 60.16
  Q 88.48 61.07 88.81 61.17
  Q 103.72 65.57 119.00 70.05
  A 0.80 0.80 0.0 0 0 120.00 69.50
  L 124.08 55.33
  A 1.45 1.43 38.4 0 0 123.95 54.24
  L 120.85 48.85
  Q 120.55 48.33 119.96 48.24
  Q 115.72 47.57 113.09 49.85
  Q 112.49 50.37 111.69 50.39
  L 103.82 50.57
  A 0.67 0.67 0.0 0 0 103.35 51.70
  L 107.09 55.67
  A 1.58 1.58 0.0 0 1 106.60 58.19"
/>
<path stroke="#b2b2b2" vector-effect="non-scaling-stroke" d="
  M 64.4713 117.8300
  A 4.99 3.54 90.1 0 0 68.0200 112.8462
  A 4.99 3.54 90.1 0 0 64.4887 107.8500
  A 4.99 3.54 90.1 0 0 60.9400 112.8338
  A 4.99 3.54 90.1 0 0 64.4713 117.8300"
/>
<path stroke="#b2b2b2" vector-effect="non-scaling-stroke" d="
  M 111.79 110.04
  A 0.33 0.33 0.0 0 0 111.17 110.04
  L 109.78 114.23
  A 0.33 0.33 0.0 0 0 110.09 114.67
  L 112.88 114.71
  A 0.33 0.33 0.0 0 0 113.20 114.28
  L 111.79 110.04"
/>
<path stroke="#b2b2b2" vector-effect="non-scaling-stroke" d="
  M 46.33 136.78
  L 44.97 133.01
  Q 44.67 132.18 44.39 133.02
  L 43.09 136.85
  Q 42.87 137.50 43.56 137.49
  L 45.86 137.46
  Q 46.57 137.46 46.33 136.78"
/>
<path stroke="#b2b2b2" vector-effect="non-scaling-stroke" d="
  M 70.96 132.77
  Q 70.78 132.29 70.61 132.77
  L 69.24 136.76
  Q 68.99 137.49 69.75 137.48
  L 72.09 137.47
  Q 72.68 137.47 72.48 136.92
  L 70.96 132.77"
/>
<path stroke="#b2b2b2" vector-effect="non-scaling-stroke" d="
  M 104.00 132.76
  Q 103.81 132.21 103.62 132.76
  L 102.23 136.76
  Q 101.98 137.48 102.75 137.48
  L 104.96 137.48
  Q 105.69 137.48 105.44 136.79
  L 104.00 132.76"
/>
<path stroke="#b2b2b2" vector-effect="non-scaling-stroke" d="
  M 115.94 131.72
  L 115.92 133.98
  A 0.45 0.45 0.0 0 0 116.37 134.44
  L 117.69 134.45
  A 2.03 1.37 0.5 0 0 119.73 133.10
  L 119.73 132.68
  A 2.03 1.37 0.5 0 0 117.71 131.29
  L 116.39 131.28
  A 0.45 0.45 0.0 0 0 115.94 131.72"
/>
<path stroke="#b2b2b2" vector-effect="non-scaling-stroke" d="
  M 115.93 137.00
  L 115.93 140.08
  A 0.29 0.29 0.0 0 0 116.22 140.37
  L 118.25 140.37
  A 1.90 1.71 -0.1 0 0 120.15 138.66
  L 120.15 138.42
  A 1.90 1.71 -0.1 0 0 118.25 136.71
  L 116.22 136.71
  A 0.29 0.29 0.0 0 0 115.93 137.00"
/>
</g>
<path fill="#eeeeee" d="
  M 0.00 0.00
  L 190.00 0.00
  L 190.00 150.00
  L 0.00 150.00
  L 0.00 0.00
  Z
  M 71.03 35.46
  Q 61.24 38.13 51.87 40.95
  C 48.67 41.91 45.98 43.46 47.00 47.04
  Q 52.85 67.47 58.99 87.78
  A 4.73 4.72 73.6 0 0 64.82 90.96
  L 95.69 82.12
  Q 106.61 85.00 117.95 88.44
  Q 121.65 89.57 123.51 86.42
  Q 124.52 84.69 125.09 82.76
  Q 133.08 55.53 141.05 28.30
  C 142.57 23.11 139.80 21.94 135.53 20.75
  Q 110.22 13.70 83.94 5.95
  A 4.15 4.15 0.0 0 0 78.79 8.77
  L 71.03 35.46
  Z
  M 71.35 111.96
  A 6.27 6.27 0.0 0 0 65.08 105.69
  L 63.86 105.69
  A 6.27 6.27 0.0 0 0 57.59 111.96
  L 57.59 113.72
  A 6.27 6.27 0.0 0 0 63.86 119.99
  L 65.08 119.99
  A 6.27 6.27 0.0 0 0 71.35 113.72
  L 71.35 111.96
  Z
  M 129.01 115.18
  L 128.95 117.01
  Q 128.93 117.57 128.39 117.64
  C 123.74 118.30 121.78 114.56 123.11 110.73
  C 124.33 107.20 128.10 107.63 131.00 108.79
  Q 131.73 109.07 131.72 108.29
  L 131.70 107.21
  Q 131.69 106.57 131.08 106.35
  C 115.65 100.93 114.85 124.89 131.53 119.12
  Q 132.01 118.96 132.01 118.45
  L 132.01 113.06
  Q 132.01 112.36 131.31 112.36
  L 127.28 112.34
  A 0.62 0.62 0.0 0 0 126.66 112.98
  L 126.69 114.00
  Q 126.71 114.79 127.50 114.72
  L 128.43 114.64
  Q 129.03 114.58 129.01 115.18
  Z
  M 46.60 111.36
  L 50.89 119.13
  Q 51.18 119.64 51.76 119.65
  L 54.22 119.69
  A 0.66 0.66 0.0 0 0 54.89 119.03
  L 54.89 106.70
  Q 54.89 106.02 54.20 106.01
  L 52.27 106.00
  Q 51.79 106.00 51.79 106.48
  L 51.77 114.22
  Q 51.76 115.45 51.18 114.36
  L 47.02 106.56
  A 0.98 0.98 0.0 0 0 46.17 106.04
  L 43.76 105.99
  Q 43.00 105.97 43.00 106.74
  L 42.99 119.22
  Q 42.99 119.70 43.47 119.69
  L 45.55 119.66
  Q 46.01 119.66 46.02 119.20
  L 46.06 111.50
  Q 46.06 110.38 46.60 111.36
  Z
  M 84.03 106.42
  A 0.41 0.41 0.0 0 0 83.62 106.01
  L 80.98 106.01
  A 0.41 0.41 0.0 0 0 80.57 106.42
  L 80.57 119.26
  A 0.41 0.41 0.0 0 0 80.98 119.67
  L 83.62 119.67
  A 0.41 0.41 0.0 0 0 84.03 119.26
  L 84.03 106.42
  Z
  M 91.02 110.70
  L 93.49 116.27
  Q 93.66 116.65 94.03 116.84
  C 95.06 117.37 96.22 117.05 96.69 115.91
  Q 97.86 113.12 99.01 110.66
  Q 99.47 109.66 99.46 110.76
  L 99.40 119.24
  A 0.36 0.36 0.0 0 0 99.74 119.60
  L 102.02 119.68
  A 0.46 0.45 -88.2 0 0 102.49 119.23
  L 102.50 106.75
  Q 102.50 106.00 101.75 106.00
  L 98.73 106.01
  Q 98.17 106.01 97.95 106.52
  L 95.23 112.75
  A 0.28 0.28 0.0 0 1 94.71 112.75
  L 92.06 106.61
  Q 91.81 106.02 91.17 106.01
  L 88.13 106.00
  Q 87.50 106.00 87.50 106.62
  L 87.50 119.18
  Q 87.50 119.62 87.93 119.63
  L 90.04 119.70
  A 0.49 0.49 0.0 0 0 90.55 119.21
  L 90.54 110.80
  Q 90.54 109.63 91.02 110.70
  Z
  M 114.42 117.43
  L 114.84 119.06
  A 0.77 0.76 -6.4 0 0 115.57 119.64
  L 117.91 119.64
  Q 118.57 119.64 118.34 119.02
  L 113.86 106.79
  Q 113.57 106.00 112.73 106.00
  L 110.24 106.01
  Q 109.40 106.01 109.11 106.79
  L 104.54 119.30
  A 0.28 0.27 -80.5 0 0 104.80 119.67
  L 107.53 119.62
  Q 108.24 119.60 108.25 118.89
  Q 108.26 118.09 108.62 117.38
  Q 108.82 116.99 109.27 116.98
  L 113.83 116.97
  A 0.62 0.61 82.6 0 1 114.42 117.43
  Z
  M 138.52 114.35
  A 0.46 0.46 0.0 0 1 138.97 113.89
  L 143.96 113.81
  A 0.46 0.46 0.0 0 0 144.41 113.32
  L 144.34 112.00
  A 0.46 0.46 0.0 0 0 143.88 111.57
  L 138.95 111.58
  A 0.46 0.46 0.0 0 1 138.49 111.11
  L 138.52 108.76
  A 0.46 0.46 0.0 0 1 138.98 108.31
  L 143.85 108.25
  A 0.46 0.46 0.0 0 0 144.31 107.81
  L 144.34 106.50
  A 0.46 0.46 0.0 0 0 143.88 106.03
  L 135.53 106.00
  A 0.46 0.46 0.0 0 0 135.07 106.46
  L 135.08 119.19
  A 0.46 0.46 0.0 0 0 135.54 119.65
  L 144.28 119.66
  A 0.46 0.46 0.0 0 0 144.74 119.19
  L 144.72 117.77
  A 0.46 0.46 0.0 0 0 144.25 117.31
  L 138.97 117.35
  A 0.46 0.46 0.0 0 1 138.50 116.88
  L 138.52 114.35
  Z
  M 41.83 140.29
  A 0.42 0.42 0.0 0 1 42.24 139.98
  L 47.18 140.02
  A 0.42 0.42 0.0 0 1 47.58 140.32
  L 48.17 142.34
  A 0.42 0.42 0.0 0 0 48.56 142.64
  L 51.23 142.74
  A 0.42 0.42 0.0 0 0 51.64 142.17
  L 46.95 129.34
  A 0.42 0.42 0.0 0 0 46.56 129.07
  L 42.92 129.00
  A 0.42 0.42 0.0 0 0 42.52 129.28
  L 37.78 142.14
  A 0.42 0.42 0.0 0 0 38.18 142.71
  L 40.85 142.69
  A 0.42 0.42 0.0 0 0 41.25 142.38
  L 41.83 140.29
  Z
  M 58.06 138.24
  A 0.31 0.31 0.0 0 1 57.48 138.25
  L 54.25 129.24
  A 0.31 0.31 0.0 0 0 53.96 129.03
  L 51.11 129.03
  A 0.31 0.31 0.0 0 0 50.82 129.45
  L 55.64 142.50
  A 0.31 0.31 0.0 0 0 55.93 142.70
  L 59.61 142.69
  A 0.31 0.31 0.0 0 0 59.90 142.49
  L 64.68 129.48
  A 0.31 0.31 0.0 0 0 64.39 129.07
  L 61.51 129.04
  A 0.31 0.31 0.0 0 0 61.22 129.25
  L 58.06 138.24
  Z
  M 67.94 140.26
  A 0.36 0.36 0.0 0 1 68.28 140.00
  L 73.29 140.00
  A 0.36 0.36 0.0 0 1 73.64 140.26
  L 74.29 142.41
  A 0.36 0.36 0.0 0 0 74.63 142.67
  L 77.42 142.73
  A 0.36 0.36 0.0 0 0 77.77 142.24
  L 73.01 129.27
  A 0.36 0.36 0.0 0 0 72.67 129.03
  L 68.96 129.03
  A 0.36 0.36 0.0 0 0 68.62 129.27
  L 63.86 142.17
  A 0.36 0.36 0.0 0 0 64.19 142.65
  L 66.98 142.71
  A 0.36 0.36 0.0 0 0 67.33 142.45
  L 67.94 140.26
  Z
  M 82.92 129.41
  A 0.39 0.39 0.0 0 0 82.53 129.02
  L 79.85 129.02
  A 0.39 0.39 0.0 0 0 79.46 129.41
  L 79.46 142.31
  A 0.39 0.39 0.0 0 0 79.85 142.70
  L 82.53 142.70
  A 0.39 0.39 0.0 0 0 82.92 142.31
  L 82.92 129.41
  Z
  M 90.19 140.39
  A 0.42 0.42 0.0 0 1 89.77 139.97
  L 89.81 129.44
  A 0.42 0.42 0.0 0 0 89.38 129.02
  L 86.72 129.05
  A 0.42 0.42 0.0 0 0 86.31 129.47
  L 86.33 142.27
  A 0.42 0.42 0.0 0 0 86.75 142.69
  L 95.57 142.71
  A 0.42 0.42 0.0 0 0 95.99 142.28
  L 95.97 140.76
  A 0.42 0.42 0.0 0 0 95.54 140.34
  L 90.19 140.39
  Z
  M 100.90 140.35
  A 0.48 0.48 0.0 0 1 101.36 139.99
  L 106.23 140.00
  A 0.48 0.48 0.0 0 1 106.69 140.35
  L 107.26 142.32
  A 0.48 0.48 0.0 0 0 107.71 142.67
  L 110.27 142.75
  A 0.48 0.48 0.0 0 0 110.73 142.10
  L 106.05 129.35
  A 0.48 0.48 0.0 0 0 105.59 129.03
  L 102.03 129.04
  A 0.48 0.48 0.0 0 0 101.59 129.35
  L 96.94 142.08
  A 0.48 0.48 0.0 0 0 97.39 142.72
  L 99.91 142.69
  A 0.48 0.48 0.0 0 0 100.37 142.34
  L 100.90 140.35
  Z
  M 121.98 134.97
  L 122.32 134.76
  Q 122.83 134.44 122.97 133.85
  C 124.33 127.99 116.70 128.82 113.05 129.09
  Q 112.47 129.13 112.47 129.71
  L 112.48 142.05
  Q 112.48 142.64 113.06 142.67
  Q 117.16 142.94 120.71 142.35
  C 124.10 141.79 124.52 137.41 121.96 135.71
  Q 121.40 135.33 121.98 134.97
  Z
  M 130.40 140.33
  A 0.39 0.39 0.0 0 1 130.02 139.94
  L 130.11 129.44
  A 0.39 0.39 0.0 0 0 129.72 129.05
  L 127.09 129.01
  A 0.39 0.39 0.0 0 0 126.70 129.40
  L 126.69 142.30
  A 0.39 0.39 0.0 0 0 127.09 142.70
  L 135.91 142.59
  A 0.39 0.39 0.0 0 0 136.29 142.16
  L 136.16 140.81
  A 0.39 0.39 0.0 0 0 135.78 140.46
  L 130.40 140.33
  Z
  M 141.95 137.09
  A 0.42 0.42 0.0 0 1 142.37 136.69
  L 147.35 136.61
  A 0.42 0.42 0.0 0 0 147.76 136.18
  L 147.75 134.94
  A 0.42 0.42 0.0 0 0 147.34 134.53
  L 142.32 134.36
  A 0.42 0.42 0.0 0 1 141.91 133.96
  L 141.83 131.94
  A 0.42 0.42 0.0 0 1 142.22 131.50
  L 147.45 131.17
  A 0.42 0.42 0.0 0 0 147.84 130.70
  L 147.71 129.56
  A 0.42 0.42 0.0 0 0 147.31 129.19
  L 138.96 128.96
  A 0.42 0.42 0.0 0 0 138.52 129.39
  L 138.65 142.17
  A 0.42 0.42 0.0 0 0 139.07 142.58
  L 147.68 142.46
  A 0.42 0.42 0.0 0 0 148.10 142.05
  L 148.14 140.97
  A 0.42 0.42 0.0 0 0 147.73 140.53
  L 142.17 140.47
  A 0.42 0.42 0.0 0 1 141.76 140.02
  L 141.95 137.09
  Z"
/>
<path fill="#ffffff" d="
  M 95.69 82.12
  Q 80.03 77.18 64.79 72.82
  Q 60.45 71.58 61.65 67.25
  Q 63.80 59.52 71.03 35.46
  L 78.79 8.77
  A 4.15 4.15 0.0 0 1 83.94 5.95
  Q 110.22 13.70 135.53 20.75
  C 139.80 21.94 142.57 23.11 141.05 28.30
  Q 133.08 55.53 125.09 82.76
  Q 124.52 84.69 123.51 86.42
  Q 121.65 89.57 117.95 88.44
  Q 106.61 85.00 95.69 82.12
  Z
  M 69.35 51.97
  L 64.59 68.50
  A 1.11 1.11 0.0 0 0 65.35 69.88
  L 119.09 85.52
  Q 120.80 86.02 121.31 84.30
  L 124.37 74.04
  L 138.32 26.18
  A 1.27 1.27 0.0 0 0 137.45 24.61
  L 83.07 8.99
  A 0.95 0.94 16.0 0 0 81.90 9.63
  L 69.35 51.97
  Z"
/>
<path fill="#bdbdbd" d="
  M 124.37 74.04
  Q 124.53 72.95 124.15 72.42
  Q 123.84 71.99 123.26 71.95
  Q 122.61 71.90 122.42 71.29
  Q 122.22 70.67 121.69 71.06
  L 120.54 71.94
  A 1.09 1.04 -58.8 0 1 119.72 72.16
  Q 117.56 71.82 115.96 70.53
  L 119.69 71.32
  A 1.08 1.08 0.0 0 0 120.95 70.57
  L 133.42 28.46
  A 1.03 1.03 0.0 0 0 132.72 27.18
  L 86.51 13.77
  A 1.26 1.26 0.0 0 0 84.95 14.63
  L 73.60 53.98
  Q 73.66 53.55 73.59 53.27
  Q 73.43 52.65 72.87 52.95
  L 72.18 53.33
  Q 71.62 53.63 71.27 53.10
  Q 70.20 51.47 69.35 51.97
  L 81.90 9.63
  A 0.95 0.94 16.0 0 1 83.07 8.99
  L 137.45 24.61
  A 1.27 1.27 0.0 0 1 138.32 26.18
  L 124.37 74.04
  Z"
/>
<path fill="#ffffff" d="
  M 115.96 70.53
  L 73.15 58.03
  A 0.69 0.69 0.0 0 1 72.68 57.18
  L 73.60 53.98
  L 84.95 14.63
  A 1.26 1.26 0.0 0 1 86.51 13.77
  L 132.72 27.18
  A 1.03 1.03 0.0 0 1 133.42 28.46
  L 120.95 70.57
  A 1.08 1.08 0.0 0 1 119.69 71.32
  L 115.96 70.53
  Z
  M 100.02 32.46
  L 100.49 27.85
  A 0.05 0.05 0.0 0 0 100.45 27.79
  L 100.39 27.79
  A 2.37 2.17 -84.1 0 0 97.99 29.92
  L 97.99 29.92
  A 2.37 2.17 -84.1 0 0 99.90 32.50
  L 99.96 32.51
  A 0.05 0.05 0.0 0 0 100.02 32.46
  Z
  M 99.85 34.37
  Q 97.63 32.91 96.12 30.69
  A 0.41 0.41 0.0 0 0 95.38 30.84
  L 94.00 37.21
  A 0.85 0.85 0.0 0 0 94.70 38.24
  C 96.49 38.53 98.01 38.82 99.72 37.88
  Q 102.12 36.55 104.64 35.76
  Q 106.37 35.21 106.95 33.50
  Q 107.29 32.50 106.29 32.82
  L 105.80 32.98
  A 0.61 0.61 0.0 0 1 105.09 32.72
  L 102.47 28.49
  Q 102.01 27.75 101.90 28.61
  L 101.26 33.72
  Q 101.07 35.18 99.85 34.37
  Z
  M 86.75 37.10
  Q 84.00 36.52 81.36 35.51
  Q 80.53 35.20 80.28 36.05
  L 74.98 54.03
  A 0.41 0.41 0.0 0 0 75.37 54.56
  Q 83.28 54.47 92.23 54.73
  Q 93.94 54.79 97.20 54.19
  Q 97.82 54.07 97.52 53.52
  L 95.89 50.55
  A 1.57 1.56 65.1 0 1 96.69 48.34
  C 100.97 46.68 106.28 48.89 110.80 47.46
  Q 111.57 47.22 111.23 46.48
  L 111.07 46.11
  Q 110.83 45.58 111.01 45.03
  C 111.77 42.73 112.67 40.87 112.27 38.28
  Q 111.88 35.72 111.71 33.36
  A 0.81 0.81 0.0 0 0 110.52 32.70
  C 108.43 33.82 107.43 36.04 105.39 36.83
  Q 100.08 38.90 94.24 41.94
  Q 92.45 42.88 93.14 40.99
  Q 93.18 40.89 93.25 40.88
  Q 94.31 40.69 94.94 40.05
  Q 95.48 39.49 94.70 39.51
  Q 94.01 39.53 93.39 39.32
  Q 93.07 39.20 92.99 38.87
  C 92.26 35.83 93.70 33.34 94.13 30.39
  A 0.34 0.33 87.7 0 0 93.72 30.01
  Q 88.31 31.31 84.27 35.22
  A 0.47 0.47 0.0 0 0 84.46 36.00
  Q 85.65 36.37 86.82 36.89
  Q 87.83 37.33 86.75 37.10
  Z
  M 115.17 36.95
  Q 113.94 36.74 113.40 35.45
  A 0.14 0.13 27.2 0 0 113.14 35.53
  C 114.06 39.34 113.63 41.68 112.35 45.01
  A 1.14 1.14 0.0 0 0 113.43 46.56
  L 118.99 46.48
  Q 119.67 46.47 119.35 45.87
  C 118.43 44.12 117.17 42.49 116.60 40.58
  Q 116.18 39.18 115.88 37.64
  Q 115.77 37.05 115.17 36.95
  Z
  M 125.00 51.98
  L 125.79 49.29
  Q 126.02 48.51 125.27 48.20
  Q 124.02 47.69 122.77 47.70
  A 0.55 0.55 0.0 0 0 122.29 48.51
  L 124.22 52.06
  Q 124.71 52.98 125.00 51.98
  Z
  M 106.60 58.19
  Q 104.62 59.12 102.30 59.21
  Q 96.03 59.46 89.69 59.76
  A 0.81 0.80 13.7 0 0 89.03 60.16
  Q 88.48 61.07 88.81 61.17
  Q 103.72 65.57 119.00 70.05
  A 0.80 0.80 0.0 0 0 120.00 69.50
  L 124.08 55.33
  A 1.45 1.43 38.4 0 0 123.95 54.24
  L 120.85 48.85
  Q 120.55 48.33 119.96 48.24
  Q 115.72 47.57 113.09 49.85
  Q 112.49 50.37 111.69 50.39
  L 103.82 50.57
  A 0.67 0.67 0.0 0 0 103.35 51.70
  L 107.09 55.67
  A 1.58 1.58 0.0 0 1 106.60 58.19
  Z"
/>
<path fill="#bdbdbd" d="
  M 100.02 32.46
  A 0.05 0.05 0.0 0 1 99.96 32.51
  L 99.90 32.50
  A 2.37 2.17 -84.1 0 1 97.99 29.92
  L 97.99 29.92
  A 2.37 2.17 -84.1 0 1 100.39 27.79
  L 100.45 27.79
  A 0.05 0.05 0.0 0 1 100.49 27.85
  L 100.02 32.46
  Z"
/>
<path fill="#bdbdbd" d="
  M 99.85 34.37
  Q 101.07 35.18 101.26 33.72
  L 101.90 28.61
  Q 102.01 27.75 102.47 28.49
  L 105.09 32.72
  A 0.61 0.61 0.0 0 0 105.80 32.98
  L 106.29 32.82
  Q 107.29 32.50 106.95 33.50
  Q 106.37 35.21 104.64 35.76
  Q 102.12 36.55 99.72 37.88
  C 98.01 38.82 96.49 38.53 94.70 38.24
  A 0.85 0.85 0.0 0 1 94.00 37.21
  L 95.38 30.84
  A 0.41 0.41 0.0 0 1 96.12 30.69
  Q 97.63 32.91 99.85 34.37
  Z"
/>
<path fill="#cccccc" d="
  M 86.82 36.89
  Q 85.65 36.37 84.46 36.00
  A 0.47 0.47 0.0 0 1 84.27 35.22
  Q 88.31 31.31 93.72 30.01
  A 0.34 0.33 87.7 0 1 94.13 30.39
  C 93.70 33.34 92.26 35.83 92.99 38.87
  Q 93.07 39.20 93.39 39.32
  Q 94.01 39.53 94.70 39.51
  Q 95.48 39.49 94.94 40.05
  Q 94.31 40.69 93.25 40.88
  Q 93.18 40.89 93.14 40.99
  Q 92.45 42.88 94.24 41.94
  Q 100.08 38.90 105.39 36.83
  C 107.43 36.04 108.43 33.82 110.52 32.70
  A 0.81 0.81 0.0 0 1 111.71 33.36
  Q 111.88 35.72 112.27 38.28
  C 112.67 40.87 111.77 42.73 111.01 45.03
  Q 110.83 45.58 111.07 46.11
  L 111.23 46.48
  Q 111.57 47.22 110.80 47.46
  C 106.28 48.89 100.97 46.68 96.69 48.34
  A 1.57 1.56 65.1 0 0 95.89 50.55
  L 97.52 53.52
  Q 97.82 54.07 97.20 54.19
  Q 93.94 54.79 92.23 54.73
  Q 83.28 54.47 75.37 54.56
  A 0.41 0.41 0.0 0 1 74.98 54.03
  L 80.28 36.05
  Q 80.53 35.20 81.36 35.51
  Q 84.00 36.52 86.75 37.10
  Q 87.83 37.33 86.82 36.89
  Z"
/>
<path fill="#bdbdbd" d="
  M 115.17 36.95
  Q 115.77 37.05 115.88 37.64
  Q 116.18 39.18 116.60 40.58
  C 117.17 42.49 118.43 44.12 119.35 45.87
  Q 119.67 46.47 118.99 46.48
  L 113.43 46.56
  A 1.14 1.14 0.0 0 1 112.35 45.01
  C 113.63 41.68 114.06 39.34 113.14 35.53
  A 0.14 0.13 27.2 0 1 113.40 35.45
  Q 113.94 36.74 115.17 36.95
  Z"
/>
<path fill="#9f9f9f" d="
  M 71.03 35.46
  Q 63.80 59.52 61.65 67.25
  Q 60.45 71.58 64.79 72.82
  Q 80.03 77.18 95.69 82.12
  L 64.82 90.96
  A 4.73 4.72 73.6 0 1 58.99 87.78
  Q 52.85 67.47 47.00 47.04
  C 45.98 43.46 48.67 41.91 51.87 40.95
  Q 61.24 38.13 71.03 35.46
  Z"
/>
<path fill="#cccccc" d="
  M 125.00 51.98
  Q 124.71 52.98 124.22 52.06
  L 122.29 48.51
  A 0.55 0.55 0.0 0 1 122.77 47.70
  Q 124.02 47.69 125.27 48.20
  Q 126.02 48.51 125.79 49.29
  L 125.00 51.98
  Z"
/>
<path fill="#cccccc" d="
  M 106.60 58.19
  A 1.58 1.58 0.0 0 0 107.09 55.67
  L 103.35 51.70
  A 0.67 0.67 0.0 0 1 103.82 50.57
  L 111.69 50.39
  Q 112.49 50.37 113.09 49.85
  Q 115.72 47.57 119.96 48.24
  Q 120.55 48.33 120.85 48.85
  L 123.95 54.24
  A 1.45 1.43 38.4 0 1 124.08 55.33
  L 120.00 69.50
  A 0.80 0.80 0.0 0 1 119.00 70.05
  Q 103.72 65.57 88.81 61.17
  Q 88.48 61.07 89.03 60.16
  A 0.81 0.80 13.7 0 1 89.69 59.76
  Q 96.03 59.46 102.30 59.21
  Q 104.62 59.12 106.60 58.19
  Z"
/>
<path fill="#9f9f9f" d="
  M 73.60 53.98
  L 72.68 57.18
  A 0.69 0.69 0.0 0 0 73.15 58.03
  L 115.96 70.53
  Q 117.56 71.82 119.72 72.16
  A 1.09 1.04 -58.8 0 0 120.54 71.94
  L 121.69 71.06
  Q 122.22 70.67 122.42 71.29
  Q 122.61 71.90 123.26 71.95
  Q 123.84 71.99 124.15 72.42
  Q 124.53 72.95 124.37 74.04
  L 121.31 84.30
  Q 120.80 86.02 119.09 85.52
  L 65.35 69.88
  A 1.11 1.11 0.0 0 1 64.59 68.50
  L 69.35 51.97
  Q 70.20 51.47 71.27 53.10
  Q 71.62 53.63 72.18 53.33
  L 72.87 52.95
  Q 73.43 52.65 73.59 53.27
  Q 73.66 53.55 73.60 53.98
  Z"
/>
<path fill="#767676" d="
  M 71.35 113.72
  A 6.27 6.27 0.0 0 1 65.08 119.99
  L 63.86 119.99
  A 6.27 6.27 0.0 0 1 57.59 113.72
  L 57.59 111.96
  A 6.27 6.27 0.0 0 1 63.86 105.69
  L 65.08 105.69
  A 6.27 6.27 0.0 0 1 71.35 111.96
  L 71.35 113.72
  Z
  M 64.4713 117.8300
  A 4.99 3.54 90.1 0 0 68.0200 112.8462
  A 4.99 3.54 90.1 0 0 64.4887 107.8500
  A 4.99 3.54 90.1 0 0 60.9400 112.8338
  A 4.99 3.54 90.1 0 0 64.4713 117.8300
  Z"
/>
<path fill="#767676" d="
  M 128.43 114.64
  L 127.50 114.72
  Q 126.71 114.79 126.69 114.00
  L 126.66 112.98
  A 0.62 0.62 0.0 0 1 127.28 112.34
  L 131.31 112.36
  Q 132.01 112.36 132.01 113.06
  L 132.01 118.45
  Q 132.01 118.96 131.53 119.12
  C 114.85 124.89 115.65 100.93 131.08 106.35
  Q 131.69 106.57 131.70 107.21
  L 131.72 108.29
  Q 131.73 109.07 131.00 108.79
  C 128.10 107.63 124.33 107.20 123.11 110.73
  C 121.78 114.56 123.74 118.30 128.39 117.64
  Q 128.93 117.57 128.95 117.01
  L 129.01 115.18
  Q 129.03 114.58 128.43 114.64
  Z"
/>
<path fill="#767676" d="
  M 46.06 111.50
  L 46.02 119.20
  Q 46.01 119.66 45.55 119.66
  L 43.47 119.69
  Q 42.99 119.70 42.99 119.22
  L 43.00 106.74
  Q 43.00 105.97 43.76 105.99
  L 46.17 106.04
  A 0.98 0.98 0.0 0 1 47.02 106.56
  L 51.18 114.36
  Q 51.76 115.45 51.77 114.22
  L 51.79 106.48
  Q 51.79 106.00 52.27 106.00
  L 54.20 106.01
  Q 54.89 106.02 54.89 106.70
  L 54.89 119.03
  A 0.66 0.66 0.0 0 1 54.22 119.69
  L 51.76 119.65
  Q 51.18 119.64 50.89 119.13
  L 46.60 111.36
  Q 46.06 110.38 46.06 111.50
  Z"
/>
<rect fill="#767676" x="80.57" y="106.01" width="3.46" height="13.66" rx="0.41"/>
<path fill="#767676" d="
  M 90.54 110.80
  L 90.55 119.21
  A 0.49 0.49 0.0 0 1 90.04 119.70
  L 87.93 119.63
  Q 87.50 119.62 87.50 119.18
  L 87.50 106.62
  Q 87.50 106.00 88.13 106.00
  L 91.17 106.01
  Q 91.81 106.02 92.06 106.61
  L 94.71 112.75
  A 0.28 0.28 0.0 0 0 95.23 112.75
  L 97.95 106.52
  Q 98.17 106.01 98.73 106.01
  L 101.75 106.00
  Q 102.50 106.00 102.50 106.75
  L 102.49 119.23
  A 0.46 0.45 -88.2 0 1 102.02 119.68
  L 99.74 119.60
  A 0.36 0.36 0.0 0 1 99.40 119.24
  L 99.46 110.76
  Q 99.47 109.66 99.01 110.66
  Q 97.86 113.12 96.69 115.91
  C 96.22 117.05 95.06 117.37 94.03 116.84
  Q 93.66 116.65 93.49 116.27
  L 91.02 110.70
  Q 90.54 109.63 90.54 110.80
  Z"
/>
<path fill="#767676" d="
  M 113.83 116.97
  L 109.27 116.98
  Q 108.82 116.99 108.62 117.38
  Q 108.26 118.09 108.25 118.89
  Q 108.24 119.60 107.53 119.62
  L 104.80 119.67
  A 0.28 0.27 -80.5 0 1 104.54 119.30
  L 109.11 106.79
  Q 109.40 106.01 110.24 106.01
  L 112.73 106.00
  Q 113.57 106.00 113.86 106.79
  L 118.34 119.02
  Q 118.57 119.64 117.91 119.64
  L 115.57 119.64
  A 0.77 0.76 -6.4 0 1 114.84 119.06
  L 114.42 117.43
  A 0.62 0.61 82.6 0 0 113.83 116.97
  Z
  M 111.79 110.04
  A 0.33 0.33 0.0 0 0 111.17 110.04
  L 109.78 114.23
  A 0.33 0.33 0.0 0 0 110.09 114.67
  L 112.88 114.71
  A 0.33 0.33 0.0 0 0 113.20 114.28
  L 111.79 110.04
  Z"
/>
<path fill="#767676" d="
  M 138.52 114.35
  L 138.50 116.88
  A 0.46 0.46 0.0 0 0 138.97 117.35
  L 144.25 117.31
  A 0.46 0.46 0.0 0 1 144.72 117.77
  L 144.74 119.19
  A 0.46 0.46 0.0 0 1 144.28 119.66
  L 135.54 119.65
  A 0.46 0.46 0.0 0 1 135.08 119.19
  L 135.07 106.46
  A 0.46 0.46 0.0 0 1 135.53 106.00
  L 143.88 106.03
  A 0.46 0.46 0.0 0 1 144.34 106.50
  L 144.31 107.81
  A 0.46 0.46 0.0 0 1 143.85 108.25
  L 138.98 108.31
  A 0.46 0.46 0.0 0 0 138.52 108.76
  L 138.49 111.11
  A 0.46 0.46 0.0 0 0 138.95 111.58
  L 143.88 111.57
  A 0.46 0.46 0.0 0 1 144.34 112.00
  L 144.41 113.32
  A 0.46 0.46 0.0 0 1 143.96 113.81
  L 138.97 113.89
  A 0.46 0.46 0.0 0 0 138.52 114.35
  Z"
/>
<ellipse fill="#eeeeee" cx="0.00" cy="0.00" transform="translate(64.48,112.84) rotate(90.1)" rx="4.99" ry="3.54"/>
<path fill="#eeeeee" d="
  M 111.79 110.04
  L 113.20 114.28
  A 0.33 0.33 0.0 0 1 112.88 114.71
  L 110.09 114.67
  A 0.33 0.33 0.0 0 1 109.78 114.23
  L 111.17 110.04
  A 0.33 0.33 0.0 0 1 111.79 110.04
  Z"
/>
<path fill="#767676" d="
  M 41.83 140.29
  L 41.25 142.38
  A 0.42 0.42 0.0 0 1 40.85 142.69
  L 38.18 142.71
  A 0.42 0.42 0.0 0 1 37.78 142.14
  L 42.52 129.28
  A 0.42 0.42 0.0 0 1 42.92 129.00
  L 46.56 129.07
  A 0.42 0.42 0.0 0 1 46.95 129.34
  L 51.64 142.17
  A 0.42 0.42 0.0 0 1 51.23 142.74
  L 48.56 142.64
  A 0.42 0.42 0.0 0 1 48.17 142.34
  L 47.58 140.32
  A 0.42 0.42 0.0 0 0 47.18 140.02
  L 42.24 139.98
  A 0.42 0.42 0.0 0 0 41.83 140.29
  Z
  M 46.33 136.78
  L 44.97 133.01
  Q 44.67 132.18 44.39 133.02
  L 43.09 136.85
  Q 42.87 137.50 43.56 137.49
  L 45.86 137.46
  Q 46.57 137.46 46.33 136.78
  Z"
/>
<path fill="#767676" d="
  M 58.06 138.24
  L 61.22 129.25
  A 0.31 0.31 0.0 0 1 61.51 129.04
  L 64.39 129.07
  A 0.31 0.31 0.0 0 1 64.68 129.48
  L 59.90 142.49
  A 0.31 0.31 0.0 0 1 59.61 142.69
  L 55.93 142.70
  A 0.31 0.31 0.0 0 1 55.64 142.50
  L 50.82 129.45
  A 0.31 0.31 0.0 0 1 51.11 129.03
  L 53.96 129.03
  A 0.31 0.31 0.0 0 1 54.25 129.24
  L 57.48 138.25
  A 0.31 0.31 0.0 0 0 58.06 138.24
  Z"
/>
<path fill="#767676" d="
  M 67.94 140.26
  L 67.33 142.45
  A 0.36 0.36 0.0 0 1 66.98 142.71
  L 64.19 142.65
  A 0.36 0.36 0.0 0 1 63.86 142.17
  L 68.62 129.27
  A 0.36 0.36 0.0 0 1 68.96 129.03
  L 72.67 129.03
  A 0.36 0.36 0.0 0 1 73.01 129.27
  L 77.77 142.24
  A 0.36 0.36 0.0 0 1 77.42 142.73
  L 74.63 142.67
  A 0.36 0.36 0.0 0 1 74.29 142.41
  L 73.64 140.26
  A 0.36 0.36 0.0 0 0 73.29 140.00
  L 68.28 140.00
  A 0.36 0.36 0.0 0 0 67.94 140.26
  Z
  M 70.96 132.77
  Q 70.78 132.29 70.61 132.77
  L 69.24 136.76
  Q 68.99 137.49 69.75 137.48
  L 72.09 137.47
  Q 72.68 137.47 72.48 136.92
  L 70.96 132.77
  Z"
/>
<rect fill="#767676" x="79.46" y="129.02" width="3.46" height="13.68" rx="0.39"/>
<path fill="#767676" d="
  M 90.19 140.39
  L 95.54 140.34
  A 0.42 0.42 0.0 0 1 95.97 140.76
  L 95.99 142.28
  A 0.42 0.42 0.0 0 1 95.57 142.71
  L 86.75 142.69
  A 0.42 0.42 0.0 0 1 86.33 142.27
  L 86.31 129.47
  A 0.42 0.42 0.0 0 1 86.72 129.05
  L 89.38 129.02
  A 0.42 0.42 0.0 0 1 89.81 129.44
  L 89.77 139.97
  A 0.42 0.42 0.0 0 0 90.19 140.39
  Z"
/>
<path fill="#767676" d="
  M 100.90 140.35
  L 100.37 142.34
  A 0.48 0.48 0.0 0 1 99.91 142.69
  L 97.39 142.72
  A 0.48 0.48 0.0 0 1 96.94 142.08
  L 101.59 129.35
  A 0.48 0.48 0.0 0 1 102.03 129.04
  L 105.59 129.03
  A 0.48 0.48 0.0 0 1 106.05 129.35
  L 110.73 142.10
  A 0.48 0.48 0.0 0 1 110.27 142.75
  L 107.71 142.67
  A 0.48 0.48 0.0 0 1 107.26 142.32
  L 106.69 140.35
  A 0.48 0.48 0.0 0 0 106.23 140.00
  L 101.36 139.99
  A 0.48 0.48 0.0 0 0 100.90 140.35
  Z
  M 104.00 132.76
  Q 103.81 132.21 103.62 132.76
  L 102.23 136.76
  Q 101.98 137.48 102.75 137.48
  L 104.96 137.48
  Q 105.69 137.48 105.44 136.79
  L 104.00 132.76
  Z"
/>
<path fill="#767676" d="
  M 121.96 135.71
  C 124.52 137.41 124.10 141.79 120.71 142.35
  Q 117.16 142.94 113.06 142.67
  Q 112.48 142.64 112.48 142.05
  L 112.47 129.71
  Q 112.47 129.13 113.05 129.09
  C 116.70 128.82 124.33 127.99 122.97 133.85
  Q 122.83 134.44 122.32 134.76
  L 121.98 134.97
  Q 121.40 135.33 121.96 135.71
  Z
  M 115.94 131.72
  L 115.92 133.98
  A 0.45 0.45 0.0 0 0 116.37 134.44
  L 117.69 134.45
  A 2.03 1.37 0.5 0 0 119.73 133.10
  L 119.73 132.68
  A 2.03 1.37 0.5 0 0 117.71 131.29
  L 116.39 131.28
  A 0.45 0.45 0.0 0 0 115.94 131.72
  Z
  M 115.93 137.00
  L 115.93 140.08
  A 0.29 0.29 0.0 0 0 116.22 140.37
  L 118.25 140.37
  A 1.90 1.71 -0.1 0 0 120.15 138.66
  L 120.15 138.42
  A 1.90 1.71 -0.1 0 0 118.25 136.71
  L 116.22 136.71
  A 0.29 0.29 0.0 0 0 115.93 137.00
  Z"
/>
<path fill="#767676" d="
  M 130.40 140.33
  L 135.78 140.46
  A 0.39 0.39 0.0 0 1 136.16 140.81
  L 136.29 142.16
  A 0.39 0.39 0.0 0 1 135.91 142.59
  L 127.09 142.70
  A 0.39 0.39 0.0 0 1 126.69 142.30
  L 126.70 129.40
  A 0.39 0.39 0.0 0 1 127.09 129.01
  L 129.72 129.05
  A 0.39 0.39 0.0 0 1 130.11 129.44
  L 130.02 139.94
  A 0.39 0.39 0.0 0 0 130.40 140.33
  Z"
/>
<path fill="#767676" d="
  M 141.95 137.09
  L 141.76 140.02
  A 0.42 0.42 0.0 0 0 142.17 140.47
  L 147.73 140.53
  A 0.42 0.42 0.0 0 1 148.14 140.97
  L 148.10 142.05
  A 0.42 0.42 0.0 0 1 147.68 142.46
  L 139.07 142.58
  A 0.42 0.42 0.0 0 1 138.65 142.17
  L 138.52 129.39
  A 0.42 0.42 0.0 0 1 138.96 128.96
  L 147.31 129.19
  A 0.42 0.42 0.0 0 1 147.71 129.56
  L 147.84 130.70
  A 0.42 0.42 0.0 0 1 147.45 131.17
  L 142.22 131.50
  A 0.42 0.42 0.0 0 0 141.83 131.94
  L 141.91 133.96
  A 0.42 0.42 0.0 0 0 142.32 134.36
  L 147.34 134.53
  A 0.42 0.42 0.0 0 1 147.75 134.94
  L 147.76 136.18
  A 0.42 0.42 0.0 0 1 147.35 136.61
  L 142.37 136.69
  A 0.42 0.42 0.0 0 0 141.95 137.09
  Z"
/>
<path fill="#eeeeee" d="
  M 115.94 131.72
  A 0.45 0.45 0.0 0 1 116.39 131.28
  L 117.71 131.29
  A 2.03 1.37 0.5 0 1 119.73 132.68
  L 119.73 133.10
  A 2.03 1.37 0.5 0 1 117.69 134.45
  L 116.37 134.44
  A 0.45 0.45 0.0 0 1 115.92 133.98
  L 115.94 131.72
  Z"
/>
<path fill="#eeeeee" d="
  M 44.97 133.01
  L 46.33 136.78
  Q 46.57 137.46 45.86 137.46
  L 43.56 137.49
  Q 42.87 137.50 43.09 136.85
  L 44.39 133.02
  Q 44.67 132.18 44.97 133.01
  Z"
/>
<path fill="#eeeeee" d="
  M 104.00 132.76
  L 105.44 136.79
  Q 105.69 137.48 104.96 137.48
  L 102.75 137.48
  Q 101.98 137.48 102.23 136.76
  L 103.62 132.76
  Q 103.81 132.21 104.00 132.76
  Z"
/>
<path fill="#eeeeee" d="
  M 70.96 132.77
  L 72.48 136.92
  Q 72.68 137.47 72.09 137.47
  L 69.75 137.48
  Q 68.99 137.49 69.24 136.76
  L 70.61 132.77
  Q 70.78 132.29 70.96 132.77
  Z"
/>
<path fill="#eeeeee" d="
  M 115.93 137.00
  A 0.29 0.29 0.0 0 1 116.22 136.71
  L 118.25 136.71
  A 1.90 1.71 -0.1 0 1 120.15 138.42
  L 120.15 138.66
  A 1.90 1.71 -0.1 0 1 118.25 140.37
  L 116.22 140.37
  A 0.29 0.29 0.0 0 1 115.93 140.08
  L 115.93 137.00
  Z"
/>
</svg>
